<svg width="53" height="53" viewBox="0 0 53 53" fill="none" xmlns="http://www.w3.org/2000/svg">
<g clip-path="url(#clip0_8_179)">
<path d="M18.6707 13.1782C16.048 14.7415 13.9479 17.0475 12.6359 19.8045C11.3238 22.5615 10.8588 25.6456 11.2995 28.6668C11.7403 31.6881 13.067 34.5108 15.112 36.7781C17.157 39.0453 19.8284 40.6552 22.7884 41.4042C25.7483 42.1531 28.8639 42.0076 31.7412 40.9859C34.6184 39.9642 37.128 38.1122 38.9527 35.6642C40.7774 33.2162 41.8352 30.282 41.9924 27.2328C42.1495 24.1836 41.3989 21.1563 39.8355 18.5337C37.736 15.0202 34.3285 12.4831 30.3606 11.4791C26.3927 10.475 22.1886 11.0861 18.6707 13.1782ZM34.2558 37.0033L29.4195 28.8903L32.4795 27.0662C32.7501 26.9049 32.9454 26.6428 33.0227 26.3375C33.1 26.0322 33.0528 25.7086 32.8915 25.4381C32.7302 25.1676 32.4681 24.9722 32.1628 24.895C31.8575 24.8177 31.534 24.8649 31.2634 25.0262L28.2034 26.8503L26.3792 23.7903C26.0567 23.2492 25.9623 22.6022 26.1168 21.9916C26.2714 21.3809 26.6621 20.8567 27.2032 20.5341L29.2432 19.318C29.5137 19.1568 29.7091 18.8946 29.7864 18.5893C29.8636 18.284 29.8164 17.9605 29.6552 17.69C29.4939 17.4194 29.2318 17.2241 28.9264 17.1468C28.6211 17.0695 28.2976 17.1167 28.0271 17.278L25.9871 18.4941C24.905 19.1392 24.1234 20.1877 23.8144 21.409C23.5054 22.6302 23.6941 23.9243 24.3392 25.0064L26.1634 28.0664L23.1033 29.8906C22.8328 30.0518 22.6374 30.314 22.5601 30.6193C22.4829 30.9246 22.5301 31.2481 22.6914 31.5186C22.8526 31.7892 23.1147 31.9845 23.4201 32.0618C23.7254 32.1391 24.0489 32.0919 24.3194 31.9306L27.3795 30.1064L32.2157 38.2194C29.1838 39.671 25.709 39.8979 22.5141 38.8529C19.3192 37.8079 16.6501 35.5714 15.062 32.6087C13.4739 29.646 13.0892 26.1851 13.9877 22.946C14.8863 19.7068 16.999 16.9387 19.8863 15.2175C22.7737 13.4962 26.2135 12.9544 29.4902 13.7046C32.7669 14.4548 35.6283 16.4394 37.4791 19.2455C39.3299 22.0515 40.0277 25.4631 39.4274 28.7706C38.827 32.078 36.9747 35.0267 34.2558 37.0033Z" fill="#171A1F"/>
</g>
<defs>
<clipPath id="clip0_8_179">
<rect width="38" height="38" fill="white" transform="translate(0.526245 19.8469) rotate(-30.8)"/>
</clipPath>
</defs>
</svg>
