<svg width="440" height="408" viewBox="0 0 440 408" fill="none" xmlns="http://www.w3.org/2000/svg">
<g clip-path="url(#clip0_8_3)">
<path d="M419.233 147.855L369.415 200.426L389.167 113.463L438.985 60.8918L419.233 147.855Z" stroke="black" stroke-width="1.725" stroke-linecap="round" stroke-linejoin="round"/>
<path d="M347.964 150.76L336.209 161.553C340.333 162.426 344.34 163.79 348.139 165.618C349.749 166.303 351.228 167.264 352.509 168.458C354.301 170.512 344.689 167.584 339.967 167.06H339.924C340.878 167.562 341.747 168.211 342.502 168.983C344.052 170.756 332.196 166.742 331.14 167.497C335.685 169.551 342.72 173.44 344.425 176.467C346.435 180.094 336.122 172.881 329.436 172.663C333.674 174.629 338.307 177.384 339.967 180.443C342.24 184.583 334.024 176.993 324.235 176.685H324.192C333.543 182.366 337.913 187.035 324.629 181.274C322.193 180.185 319.594 179.505 316.937 179.263L290.237 203.68L369.071 200.621L380.652 149.58L347.964 150.76Z" stroke="black" stroke-width="1.725" stroke-linecap="round" stroke-linejoin="round"/>
<path d="M238.627 45.6685C238.813 44.6098 238.616 43.5194 238.07 42.5925C237.528 41.6656 236.67 40.9625 235.655 40.6085C236.309 40.0047 236.771 39.2232 236.987 38.3598C237.203 37.4966 237.162 36.5892 236.868 35.7491C236.575 34.9091 236.042 34.1729 235.338 33.631C234.632 33.0891 233.783 32.765 232.895 32.6988C233.257 31.9285 233.399 31.0729 233.303 30.2272C233.208 29.3815 232.879 28.5788 232.355 27.9086C231.831 27.2384 231.131 26.7266 230.333 26.4306C229.535 26.1344 228.67 26.0654 227.835 26.2312C227.944 25.3832 227.81 24.5218 227.451 23.7456C227.093 22.9693 226.524 22.3092 225.809 21.8403C225.094 21.3713 224.261 21.1126 223.408 21.093C222.552 21.0735 221.711 21.2942 220.975 21.7301C220.818 20.8591 220.416 20.0513 219.812 19.4039C219.208 18.7564 218.431 18.2969 217.573 18.08C216.715 17.8631 215.813 17.8985 214.975 18.1817C214.137 18.4648 213.397 18.9837 212.846 19.6762C212.43 18.842 211.779 18.1472 210.973 17.6766C210.168 17.206 209.243 16.9801 208.312 17.0264C207.38 17.0728 206.482 17.3893 205.728 17.9376C204.973 18.4857 204.395 19.2417 204.063 20.1132C203.535 19.5566 202.875 19.1417 202.144 18.9068C201.414 18.6722 200.636 18.6249 199.882 18.7698C199.129 18.9147 198.424 19.2466 197.833 19.7355C197.241 20.2243 196.782 20.854 196.498 21.5668C196.573 20.4741 196.335 19.3827 195.81 18.4211C195.286 17.4592 194.498 16.6673 193.539 16.1381C192.58 15.6091 191.491 15.3649 190.397 15.4341C189.305 15.5035 188.254 15.8837 187.369 16.5298C186.885 15.4122 186.071 14.469 185.036 13.8264C184.002 13.184 182.796 12.8728 181.579 12.9344C180.362 12.9963 179.194 13.428 178.229 14.1721C177.264 14.9161 176.55 15.9369 176.182 17.0979C175.182 16.493 174.02 16.2089 172.854 16.2842C171.687 16.3594 170.571 16.7902 169.657 17.5183C168.743 18.2467 168.073 19.2378 167.74 20.3582C167.406 21.4783 167.424 22.674 167.789 23.784C166.62 23.9165 165.518 24.4064 164.637 25.1872C163.755 25.9679 163.135 27.0012 162.863 28.1469C162.589 29.2923 162.676 30.494 163.111 31.5886C163.546 32.6829 164.307 33.6167 165.292 34.2628C164.369 35.0094 163.702 36.0234 163.381 37.1654C163.061 38.3073 163.102 39.5208 163.5 40.6382C163.898 41.7557 164.633 42.722 165.603 43.4039C166.574 44.0859 167.733 44.4495 168.919 44.4449C168.681 45.5843 168.796 46.7693 169.25 47.8411C169.703 48.9131 170.473 49.8209 171.457 50.4433C172.44 51.0659 173.591 51.3732 174.754 51.3242C175.916 51.2752 177.036 50.8725 177.965 50.1696C178.333 51.1124 178.95 51.9365 179.752 52.5536C180.553 53.1704 181.509 53.5566 182.514 53.6702C182.329 54.3227 182.292 55.0083 182.405 55.677C182.517 56.3458 182.777 56.981 183.166 57.5367C183.555 58.0926 184.062 58.5552 184.652 58.891C185.241 59.2265 185.897 59.4271 186.573 59.4777C186.208 60.2505 186.066 61.11 186.165 61.9592C186.264 62.8081 186.598 63.6126 187.13 64.2812C187.662 64.9501 188.371 65.4563 189.177 65.7427C189.982 66.029 190.851 66.0842 191.686 65.9016C191.586 66.7512 191.725 67.6121 192.09 68.3861C192.455 69.1602 193.028 69.8167 193.747 70.2808C194.466 70.7452 195.3 70.9984 196.155 71.0124C197.011 71.0262 197.853 70.7999 198.586 70.359C198.743 71.2309 199.148 72.0389 199.754 72.6855C200.358 73.332 201.138 73.7892 201.998 74.0017C202.857 74.2145 203.761 74.1733 204.599 73.8838C205.435 73.594 206.171 73.0679 206.715 72.3692C207.265 73.1595 207.98 73.8219 208.81 74.312C209.639 74.8019 210.564 75.1083 211.522 75.2097C212.985 72.5652 213.977 69.6853 214.449 66.6997C214.936 63.6598 214.368 60.5449 212.839 57.8723C206.328 55.731 209.256 48.0835 213.67 51.0551C215.767 52.4972 216.563 52.4052 216.729 51.0114C216.741 50.6087 216.862 50.217 217.079 49.8775C217.296 49.538 217.602 49.2639 217.962 49.084C218.35 49.9037 218.972 50.59 219.75 51.0569C220.526 51.5241 221.425 51.7506 222.332 51.7088C223.238 51.6667 224.112 51.3578 224.841 50.8207C225.572 50.2839 226.129 49.5428 226.439 48.6907C226.863 49.1378 227.371 49.4955 227.934 49.7425C228.498 49.9897 229.105 50.1211 229.719 50.1293C230.336 50.1374 230.945 50.0222 231.515 49.7899C232.086 49.5578 232.603 49.2139 233.038 48.7781C234.119 51.3251 234.94 53.9754 235.485 56.6878C236.141 56.3182 236.697 55.7931 237.102 55.1585C237.509 54.524 237.753 53.7995 237.813 53.0487C237.873 52.2978 237.748 51.5436 237.449 50.8525C237.15 50.1611 236.686 49.5539 236.097 49.084C236.755 48.7503 237.325 48.268 237.765 47.675C238.204 47.0823 238.501 46.3953 238.627 45.6685Z" stroke="black" stroke-width="1.725" stroke-linecap="round" stroke-linejoin="round"/>
<path d="M235.064 72.7633L365.509 50.8259" stroke="black" stroke-width="1.725" stroke-linecap="round" stroke-linejoin="round"/>
<path d="M20.2502 108.748L210.345 76.8472" stroke="black" stroke-width="1.725" stroke-linecap="round" stroke-linejoin="round"/>
<path d="M221.54 93.4103L260.652 128.545" stroke="black" stroke-width="1.725" stroke-linecap="round" stroke-linejoin="round"/>
<path d="M260.896 132.436C261.421 130.47 261.423 129.067 260.722 128.591C260.068 128.149 258.882 128.54 257.4 129.596C255.181 131.348 253.173 133.355 251.42 135.576" stroke="black" stroke-width="1.725" stroke-linecap="round" stroke-linejoin="round"/>
<path d="M96.5776 184.324C81.807 172.569 80.5834 172.219 68.8718 159.415C44.1376 162.911 16.9148 171.17 5.37793 176.633C22.9875 183.287 41.8479 185.972 60.6148 184.499L80.6731 202.547" stroke="black" stroke-width="1.725" stroke-linecap="round" stroke-linejoin="round"/>
<path d="M208.431 93.4972L249.64 130.467" stroke="black" stroke-width="1.725" stroke-linecap="round" stroke-linejoin="round"/>
<path d="M229.556 160.313L202.899 137.72L219.043 162.84" stroke="black" stroke-width="1.725" stroke-linecap="round" stroke-linejoin="round"/>
<path d="M325.199 165.284C326.809 165.634 341.552 170.786 344.646 176.296C346.716 179.965 336.255 172.669 329.482 172.451" stroke="black" stroke-width="1.725" stroke-linecap="round" stroke-linejoin="round"/>
<path d="M323.747 170.109C327.854 171.595 337.59 175.707 340.134 180.335C342.434 184.535 334.154 176.839 324.227 176.533" stroke="black" stroke-width="1.725" stroke-linecap="round" stroke-linejoin="round"/>
<path d="M322.393 175.611C332.793 181.685 338.525 187.309 324.403 181.205C317.107 178.051 263.913 176.441 263.913 176.441C259.244 175.958 254.787 174.254 250.987 171.499L229.924 155.504" stroke="black" stroke-width="1.725" stroke-linecap="round" stroke-linejoin="round"/>
<path d="M246.58 131.56L267.993 150.569C267.993 150.569 321.657 160.62 325.765 161.793C329.872 162.966 339.709 165.46 342.589 168.742C344.121 170.488 335.689 167.474 330.572 167.212" stroke="black" stroke-width="1.725" stroke-linecap="round" stroke-linejoin="round"/>
<path d="M249.849 134.382C250.374 132.415 250.376 131.012 249.674 130.536C249.021 130.094 247.834 130.488 246.353 131.541C240.306 135.844 231.32 149.184 229.441 156.494C228.981 158.288 229.064 159.905 229.66 160.296C230.35 160.756 232.325 160.208 233.8 158.548" stroke="black" stroke-width="1.725" stroke-linecap="round" stroke-linejoin="round"/>
<path d="M162.629 174.605C173.179 175.049 183.558 171.822 191.996 165.471" stroke="black" stroke-width="1.725" stroke-linecap="round" stroke-linejoin="round"/>
<path d="M218.701 163.528L223.377 155.094" stroke="black" stroke-width="1.725" stroke-linecap="round" stroke-linejoin="round"/>
<path d="M220.72 89.2105C217.836 93.4057 212.548 91.5703 205.251 84.5346" stroke="black" stroke-width="1.725" stroke-linecap="round" stroke-linejoin="round"/>
<path d="M173.807 227.852L207.769 190.046L170.362 250.964" stroke="black" stroke-width="1.725" stroke-linecap="round" stroke-linejoin="round"/>
<path d="M120.205 249.567C122.671 251.782 125.55 253.49 128.677 254.592C131.803 255.694 135.118 256.17 138.427 255.991C141.738 255.814 144.981 254.983 147.971 253.553C150.962 252.12 153.641 250.112 155.855 247.644L173.634 227.896L166.605 274.816L137.588 307.154C144.869 319.938 156.09 330.023 169.576 335.904L200.297 301.687C204.846 296.629 208.06 290.516 209.649 283.901C216.338 255.841 214.063 206.29 218.389 163.682C200.997 160.449 194.573 156.516 181.332 146.071C172.776 152.325 153.679 156.966 134.488 204.687L105.871 178.948C92.6689 185.665 82.4355 197.051 77.16 210.892L120.205 249.567Z" stroke="black" stroke-width="1.725" stroke-linecap="round" stroke-linejoin="round"/>
<path d="M222.881 75.6492C221.724 75.2177 220.594 74.7154 219.5 74.145L221.719 78.975" stroke="black" stroke-width="1.725" stroke-linecap="round" stroke-linejoin="round"/>
<path d="M181.579 145.736C183.439 139.893 184.698 133.875 185.338 127.775C186.451 118.391 189.174 109.27 193.388 100.812C197.505 92.162 206.958 84.1856 211.788 74.9856C213.235 72.4581 214.154 69.6632 214.49 66.77C214.978 63.7301 214.41 60.615 212.88 57.9426C206.369 55.8013 209.31 48.1354 213.71 51.1254C215.815 52.5583 216.638 52.4801 216.769 51.0817C216.888 50.3464 217.035 49.6467 217.209 48.9841M224.635 108.11C221.415 98.8182 218.743 84.6111 222.816 75.7032C239.362 81.7729 237.962 60.3208 233.113 48.9841L224.635 108.11Z" stroke="black" stroke-width="1.725" stroke-linecap="round" stroke-linejoin="round"/>
<path d="M147.317 296.57C155.221 308.884 166.471 318.691 179.747 324.844" stroke="black" stroke-width="1.725" stroke-linecap="round" stroke-linejoin="round"/>
<path d="M86.4801 219.253C93.8217 205.913 102.999 194.956 115.06 187.352" stroke="black" stroke-width="1.725" stroke-linecap="round" stroke-linejoin="round"/>
<path d="M142.749 315.344C133.517 326.614 125.257 335.46 116.267 344.842C113.863 359.045 114.999 391.645 119.588 406.809C131.778 386.532 136.194 373.64 142.358 352.759L161.062 331.957" stroke="black" stroke-width="1.725" stroke-linecap="round" stroke-linejoin="round"/>
<path d="M61.6636 185.36C65.7889 178.736 70.8524 172.745 76.6964 167.574" stroke="black" stroke-width="1.725" stroke-linecap="round" stroke-linejoin="round"/>
<path d="M340.013 166.814C344.776 167.295 354.469 170.264 352.686 168.213C351.391 167.006 349.898 166.03 348.272 165.329C342.108 162.316 336.211 161.352 329.656 159.56L278.826 147.237L257.616 129.605" stroke="black" stroke-width="1.725" stroke-linecap="round" stroke-linejoin="round"/>
<path d="M176.758 172.974L137.559 230.571L99.6713 200.549" stroke="black" stroke-width="1.725" stroke-linecap="round" stroke-linejoin="round"/>
<path d="M284.474 41.4788C284.768 43.2505 284.529 45.0696 283.789 46.706C283.05 48.3422 281.84 49.7225 280.316 50.6719C278.793 51.6213 277.02 52.0974 275.226 52.0399C273.429 51.9824 271.693 51.3941 270.232 50.349C268.772 49.3041 267.654 47.8493 267.019 46.169C266.387 44.4888 266.265 42.6582 266.672 40.9089C267.077 39.1597 267.994 37.5702 269.303 36.3415C270.614 35.1129 272.259 34.3 274.03 34.0061C276.406 33.6133 278.841 34.1797 280.799 35.5809C282.756 36.9821 284.078 39.1034 284.474 41.4788Z" stroke="black" stroke-width="1.725" stroke-linecap="round" stroke-linejoin="round"/>
<path d="M309.323 37.3565C309.618 39.1282 309.378 40.9473 308.638 42.5837C307.899 44.2199 306.69 45.6002 305.165 46.5496C303.642 47.499 301.869 47.9751 300.075 47.9176C298.279 47.8601 296.542 47.2716 295.082 46.2267C293.621 45.1818 292.503 43.727 291.868 42.0467C291.236 40.3665 291.114 38.5359 291.521 36.7866C291.926 35.0374 292.844 33.4479 294.152 32.2192C295.463 30.9906 297.108 30.1777 298.879 29.8838C301.255 29.491 303.688 30.0572 305.648 31.4586C307.605 32.8598 308.928 34.9811 309.323 37.3565Z" stroke="black" stroke-width="1.725" stroke-linecap="round" stroke-linejoin="round"/>
<path d="M334.601 33.1588C334.895 34.9305 334.656 36.7496 333.915 38.386C333.177 40.0222 331.967 41.4025 330.442 42.3519C328.92 43.3013 327.147 43.7772 325.353 43.7199C323.556 43.6624 321.82 43.0739 320.359 42.029C318.899 40.9839 317.781 39.5293 317.146 37.849C316.514 36.1688 316.392 34.3382 316.799 32.5889C317.204 30.8395 318.121 29.2502 319.43 28.0215C320.741 26.7929 322.386 25.98 324.157 25.6861C326.532 25.2926 328.968 25.8588 330.925 27.26C332.885 28.6614 334.208 30.7831 334.601 33.1588Z" stroke="black" stroke-width="1.725" stroke-linecap="round" stroke-linejoin="round"/>
<path d="M73.3943 1.1124L56.7009 24.623" stroke="black" stroke-width="1.725" stroke-linecap="round" stroke-linejoin="round"/>
<path d="M76.8 21.2144L53.3331 4.521" stroke="black" stroke-width="1.725" stroke-linecap="round" stroke-linejoin="round"/>
<path d="M6.96652 255.099L6.44212 255.274L22.5674 269.564L1.28552 292.943L12.6912 303.126L33.9731 279.702L50.0524 293.995L62.0722 237.403L6.96652 255.099Z" stroke="black" stroke-width="1.725" stroke-linecap="round" stroke-linejoin="round"/>
<path d="M289.407 287.365L255.583 276.877L284.031 257.124" stroke="black" stroke-width="1.725" stroke-linecap="round" stroke-linejoin="round"/>
<path d="M317.438 282.891L345.668 262.002L312.063 252.607" stroke="black" stroke-width="1.725" stroke-linecap="round" stroke-linejoin="round"/>
<path d="M306.749 240.155L294.382 300.374" stroke="black" stroke-width="1.725" stroke-linecap="round" stroke-linejoin="round"/>
<path d="M32.189 183.71L54.8589 323.485C55.669 328.253 57.4105 332.814 59.984 336.906C62.5577 341 65.9127 344.546 69.8574 347.343C73.8022 350.138 78.2594 352.129 82.9741 353.203C87.6891 354.275 92.569 354.409 97.3353 353.594L115.511 350.538" stroke="black" stroke-width="1.725" stroke-linecap="round" stroke-linejoin="round"/>
<path d="M386.606 182.178L400.107 265.4C400.921 270.165 400.788 275.046 399.716 279.761C398.642 284.476 396.65 288.933 393.856 292.878C391.059 296.822 387.512 300.178 383.418 302.752C379.324 305.326 374.766 307.067 369.998 307.876L149.913 344.888" stroke="black" stroke-width="1.725" stroke-linecap="round" stroke-linejoin="round"/>
<path d="M163.092 36.9702L48.6371 56.1991C43.8701 57.0094 39.3095 58.751 35.2159 61.3244C31.1224 63.8979 27.5762 67.2529 24.7799 71.1979C21.9838 75.1426 19.9922 79.5998 18.9195 84.3145C17.8468 89.0293 17.7136 93.9094 18.5278 98.6755L29.7389 167.8" stroke="black" stroke-width="1.725" stroke-linecap="round" stroke-linejoin="round"/>
<path d="M228.319 26.1091L321.357 10.4781C326.122 9.66391 331.003 9.79706 335.718 10.8698C340.433 11.9425 344.89 13.9341 348.835 16.7302C352.779 19.5265 356.135 23.0727 358.709 27.1662C361.282 31.2598 363.023 35.8204 363.833 40.5874L381.085 146.945" stroke="black" stroke-width="1.725" stroke-linecap="round" stroke-linejoin="round"/>
<path d="M125.037 335.544C129.851 342.157 135.693 347.955 142.343 352.718" stroke="black" stroke-width="1.725" stroke-linecap="round" stroke-linejoin="round"/>
</g>
<defs>
<clipPath id="clip0_8_3">
<rect width="440" height="408" fill="white"/>
</clipPath>
</defs>
</svg>
