<svg width="37" height="37" viewBox="0 0 37 37" fill="none" xmlns="http://www.w3.org/2000/svg">
<g clip-path="url(#clip0_8_175)">
<path d="M16.9406 11.9014C13.3261 12.8086 11.1425 16.4558 12.0497 20.0702C12.9569 23.6847 16.6041 25.8683 20.2185 24.9611C23.833 24.0539 26.0166 20.4067 25.1094 16.7923C24.2022 13.1778 20.555 10.9942 16.9406 11.9014ZM19.6451 22.6765C17.3094 23.2628 14.922 21.8382 14.3343 19.4968C13.7466 17.1554 15.1726 14.7737 17.514 14.186C19.8554 13.5983 22.2371 15.0243 22.8248 17.3657C23.4125 19.7071 21.9809 22.0902 19.6451 22.6765ZM25.1936 9.54595C25.4061 10.3927 24.8939 11.2402 24.0528 11.4513C23.206 11.6638 22.3586 11.1516 22.1474 10.3105C21.9363 9.46943 22.4471 8.61628 23.2882 8.40517C24.1293 8.19406 24.9825 8.70486 25.1936 9.54595ZM29.9064 10.0062C29.2977 7.99025 28.3781 6.3 26.5097 5.18618C24.647 4.07094 22.7228 4.05853 20.6569 4.46833C18.5242 4.87677 12.2217 6.45869 10.1489 7.10582C8.13857 7.7131 6.44831 8.63272 5.32739 10.4968C4.20646 12.361 4.19974 14.2837 4.60954 16.3496C5.01797 18.4823 6.59989 24.7849 7.24702 26.8577C7.85573 28.8737 8.77535 30.5639 10.6437 31.6777C12.5121 32.7915 14.4306 32.8054 16.4965 32.3956C18.6292 31.9871 24.9318 30.4052 27.0046 29.7581C29.0205 29.1494 30.7108 28.2298 31.8246 26.3614C32.9399 24.4987 32.9523 22.5745 32.5425 20.5086C32.134 18.3759 30.5535 12.079 29.9064 10.0062ZM30.3922 23.4466C30.2285 24.6718 29.5858 25.7453 28.5789 26.4753C27.0693 27.561 23.0526 28.4061 21.1999 28.8711C19.3472 29.3361 15.4005 30.4838 13.5642 30.2439C12.339 30.0802 11.2655 29.4375 10.5355 28.4306C9.4498 26.921 8.60474 22.9043 8.13972 21.0516C7.6747 19.1989 6.527 15.2522 6.76687 13.4159C6.93057 12.1907 7.57332 11.1172 8.5802 10.3872C10.0898 9.30148 14.1065 8.45642 15.9592 7.9914C17.8119 7.52638 21.7586 6.37869 23.5949 6.61855C24.8201 6.78225 25.8936 7.42501 26.6236 8.43189C27.7093 9.9415 28.5544 13.9582 29.0194 15.8109C29.4844 17.6636 30.6378 21.6089 30.3922 23.4466Z" fill="#171A1F"/>
</g>
<defs>
<clipPath id="clip0_8_175">
<rect width="30" height="30" fill="white" transform="translate(0.374908 7.54132) rotate(-14.09)"/>
</clipPath>
</defs>
</svg>
