<svg width="41" height="41" viewBox="0 0 41 41" fill="none" xmlns="http://www.w3.org/2000/svg">
<g clip-path="url(#clip0_8_177)">
<path d="M34.578 9.62727C34.461 9.45272 34.2948 9.3168 34.1006 9.23668C33.9063 9.15656 33.6926 9.13585 33.4866 9.17717L29.5241 9.97254C28.781 9.14122 27.8353 8.51634 26.7791 8.15865C25.723 7.80097 24.5922 7.72265 23.4968 7.93131C22.6802 8.08411 21.9024 8.3987 21.2091 8.85656C20.5159 9.31442 19.9212 9.90631 19.4601 10.5974C18.9836 11.2989 18.6521 12.0885 18.4852 12.92C18.3183 13.7514 18.3192 14.6078 18.4881 15.4389L18.6473 16.2319C13.1272 15.9013 7.98322 12.4975 7.9285 12.461C7.76044 12.3481 7.56361 12.2855 7.36118 12.2807C7.15875 12.2759 6.95916 12.329 6.78591 12.4338C6.61266 12.5386 6.47296 12.6907 6.38327 12.8723C6.29358 13.0538 6.25763 13.2572 6.27966 13.4585C6.96755 19.7941 9.61083 23.5956 11.7106 25.668C12.7377 26.6946 13.9109 27.5638 15.1922 28.2473C13.6673 30.928 10.7854 32.7541 10.7542 32.7739C10.6182 32.8585 10.5032 32.9727 10.4176 33.1079C10.3319 33.2432 10.278 33.3961 10.2598 33.5552C10.2416 33.7142 10.2595 33.8753 10.3123 34.0265C10.3651 34.1776 10.4514 34.3149 10.5647 34.428C10.6916 34.5542 11.185 34.9876 12.2354 35.2739C13.5338 35.6282 15.1526 35.6149 17.0433 35.2353C26.2456 33.3882 32.5124 24.7584 31.4674 15.4832L34.5807 10.808C34.697 10.633 34.7589 10.4274 34.7584 10.2172C34.758 10.007 34.6952 9.80175 34.578 9.62727ZM29.487 14.6331C29.3444 14.848 29.2847 15.1074 29.3193 15.363C30.4383 23.6847 24.8651 31.4979 16.6251 33.1519C15.25 33.4279 14.2446 33.4401 13.521 33.3578C14.8564 32.2431 16.6654 30.4237 17.6046 28.1383C17.6597 28.0039 17.6866 27.8597 17.6838 27.7145C17.681 27.5693 17.6484 27.4263 17.5881 27.2942C17.5278 27.1621 17.4411 27.0437 17.3333 26.9464C17.2255 26.8491 17.0989 26.775 16.9613 26.7286C16.893 26.7057 10.5551 24.4464 8.72262 15.378C11.1459 16.6526 15.4818 18.5145 19.9805 18.3728C20.1347 18.368 20.286 18.3297 20.4239 18.2605C20.5618 18.1913 20.683 18.0929 20.779 17.9722C20.8751 17.8515 20.9437 17.7113 20.98 17.5614C21.0164 17.4115 21.0197 17.2554 20.9897 17.1041L20.5715 15.0207C20.4588 14.4652 20.4583 13.8928 20.5701 13.3372C20.6819 12.7815 20.9037 12.2538 21.2225 11.7852C21.5264 11.3277 21.919 10.9358 22.377 10.6326C22.835 10.3294 23.3491 10.1211 23.889 10.02C25.5417 9.70991 27.2839 10.406 28.2246 11.7519C28.3431 11.9211 28.5083 12.0521 28.7001 12.1288C28.8918 12.2056 29.1018 12.2248 29.3043 12.1841L31.3877 11.7658L29.487 14.6331Z" fill="#171A1F"/>
</g>
<defs>
<clipPath id="clip0_8_177">
<rect width="34" height="34" fill="white" transform="translate(0.562134 7.11646) rotate(-11.35)"/>
</clipPath>
</defs>
</svg>
